<mxfile host="app.diagrams.net" agent="Mozilla/5.0 (X11; Linux x86_64) AppleWebKit/537.36 (KHTML, like Gecko) Chrome/128.0.0.0 YaBrowser/24.10.0.0 Safari/537.36" version="26.0.6">
  <diagram name="Страница — 1" id="lYaJIfW0U17Z3Oqj9LKI">
    <mxGraphModel dx="1259" dy="634" grid="1" gridSize="10" guides="1" tooltips="1" connect="1" arrows="1" fold="1" page="1" pageScale="1" pageWidth="827" pageHeight="1169" math="0" shadow="0">
      <root>
        <mxCell id="0" />
        <mxCell id="1" parent="0" />
        <mxCell id="h8kYGKFSrVFOgAnL3OnT-12" style="edgeStyle=orthogonalEdgeStyle;rounded=0;orthogonalLoop=1;jettySize=auto;html=1;exitX=0.5;exitY=1;exitDx=0;exitDy=0;entryX=0.5;entryY=0;entryDx=0;entryDy=0;" edge="1" parent="1" source="h8kYGKFSrVFOgAnL3OnT-1" target="h8kYGKFSrVFOgAnL3OnT-2">
          <mxGeometry relative="1" as="geometry" />
        </mxCell>
        <mxCell id="h8kYGKFSrVFOgAnL3OnT-1" value="Начало" style="rounded=1;whiteSpace=wrap;html=1;fillColor=#dae8fc;strokeColor=#6c8ebf;" vertex="1" parent="1">
          <mxGeometry x="340" y="40" width="120" height="60" as="geometry" />
        </mxCell>
        <mxCell id="h8kYGKFSrVFOgAnL3OnT-13" style="edgeStyle=orthogonalEdgeStyle;rounded=0;orthogonalLoop=1;jettySize=auto;html=1;exitX=0.5;exitY=1;exitDx=0;exitDy=0;entryX=0.5;entryY=0;entryDx=0;entryDy=0;" edge="1" parent="1" source="h8kYGKFSrVFOgAnL3OnT-2" target="h8kYGKFSrVFOgAnL3OnT-3">
          <mxGeometry relative="1" as="geometry" />
        </mxCell>
        <mxCell id="h8kYGKFSrVFOgAnL3OnT-2" value="Получаем&lt;div&gt;команду&lt;/div&gt;&lt;div&gt;на ввод&lt;/div&gt;" style="shape=parallelogram;perimeter=parallelogramPerimeter;whiteSpace=wrap;html=1;fixedSize=1;" vertex="1" parent="1">
          <mxGeometry x="340" y="130" width="120" height="60" as="geometry" />
        </mxCell>
        <mxCell id="h8kYGKFSrVFOgAnL3OnT-16" style="edgeStyle=orthogonalEdgeStyle;rounded=0;orthogonalLoop=1;jettySize=auto;html=1;exitX=0;exitY=0.5;exitDx=0;exitDy=0;entryX=0.5;entryY=0;entryDx=0;entryDy=0;" edge="1" parent="1" source="h8kYGKFSrVFOgAnL3OnT-3" target="h8kYGKFSrVFOgAnL3OnT-4">
          <mxGeometry relative="1" as="geometry" />
        </mxCell>
        <mxCell id="h8kYGKFSrVFOgAnL3OnT-17" style="edgeStyle=orthogonalEdgeStyle;rounded=0;orthogonalLoop=1;jettySize=auto;html=1;exitX=1;exitY=0.5;exitDx=0;exitDy=0;entryX=0.5;entryY=0;entryDx=0;entryDy=0;" edge="1" parent="1" source="h8kYGKFSrVFOgAnL3OnT-3" target="h8kYGKFSrVFOgAnL3OnT-5">
          <mxGeometry relative="1" as="geometry" />
        </mxCell>
        <mxCell id="h8kYGKFSrVFOgAnL3OnT-3" value="Сохраняем всю команду в переменную-строку" style="rounded=0;whiteSpace=wrap;html=1;" vertex="1" parent="1">
          <mxGeometry x="340" y="220" width="120" height="60" as="geometry" />
        </mxCell>
        <mxCell id="h8kYGKFSrVFOgAnL3OnT-18" style="edgeStyle=orthogonalEdgeStyle;rounded=0;orthogonalLoop=1;jettySize=auto;html=1;exitX=0.5;exitY=1;exitDx=0;exitDy=0;entryX=0.5;entryY=0;entryDx=0;entryDy=0;" edge="1" parent="1" source="h8kYGKFSrVFOgAnL3OnT-4" target="h8kYGKFSrVFOgAnL3OnT-6">
          <mxGeometry relative="1" as="geometry" />
        </mxCell>
        <mxCell id="h8kYGKFSrVFOgAnL3OnT-4" value="Найти имя файла в команде&lt;br&gt;? по каким параметрам?" style="rounded=0;whiteSpace=wrap;html=1;" vertex="1" parent="1">
          <mxGeometry x="220" y="300" width="120" height="80" as="geometry" />
        </mxCell>
        <mxCell id="h8kYGKFSrVFOgAnL3OnT-19" style="edgeStyle=orthogonalEdgeStyle;rounded=0;orthogonalLoop=1;jettySize=auto;html=1;exitX=0.5;exitY=1;exitDx=0;exitDy=0;entryX=0.5;entryY=0;entryDx=0;entryDy=0;" edge="1" parent="1" source="h8kYGKFSrVFOgAnL3OnT-5" target="h8kYGKFSrVFOgAnL3OnT-7">
          <mxGeometry relative="1" as="geometry" />
        </mxCell>
        <mxCell id="h8kYGKFSrVFOgAnL3OnT-5" value="Найти по &quot;-&quot; флаг (опцию)" style="rounded=0;whiteSpace=wrap;html=1;" vertex="1" parent="1">
          <mxGeometry x="460" y="300" width="120" height="80" as="geometry" />
        </mxCell>
        <mxCell id="h8kYGKFSrVFOgAnL3OnT-10" style="edgeStyle=orthogonalEdgeStyle;rounded=0;orthogonalLoop=1;jettySize=auto;html=1;exitX=1;exitY=0.5;exitDx=0;exitDy=0;entryX=0;entryY=0.5;entryDx=0;entryDy=0;" edge="1" parent="1" source="h8kYGKFSrVFOgAnL3OnT-6" target="h8kYGKFSrVFOgAnL3OnT-7">
          <mxGeometry relative="1" as="geometry" />
        </mxCell>
        <mxCell id="h8kYGKFSrVFOgAnL3OnT-6" value="Открыть файл" style="rounded=0;whiteSpace=wrap;html=1;" vertex="1" parent="1">
          <mxGeometry x="220" y="400" width="120" height="60" as="geometry" />
        </mxCell>
        <mxCell id="h8kYGKFSrVFOgAnL3OnT-20" style="edgeStyle=orthogonalEdgeStyle;rounded=0;orthogonalLoop=1;jettySize=auto;html=1;exitX=1;exitY=1;exitDx=0;exitDy=0;entryX=1;entryY=0;entryDx=0;entryDy=0;" edge="1" parent="1" source="h8kYGKFSrVFOgAnL3OnT-7" target="h8kYGKFSrVFOgAnL3OnT-11">
          <mxGeometry relative="1" as="geometry" />
        </mxCell>
        <mxCell id="h8kYGKFSrVFOgAnL3OnT-7" value="Применить к содержимому файла значение флага" style="rounded=0;whiteSpace=wrap;html=1;" vertex="1" parent="1">
          <mxGeometry x="460" y="400" width="120" height="60" as="geometry" />
        </mxCell>
        <mxCell id="h8kYGKFSrVFOgAnL3OnT-8" value="Проверки:&lt;div&gt;1) Полнота команды: есть название файла. ?Нужно ли просто открывать файл или только с флагами?&lt;/div&gt;&lt;div&gt;2) Есть ли такой файл?&lt;/div&gt;&lt;div&gt;3) Имеется ли содержимое файла?&lt;/div&gt;&lt;div&gt;4) Есть ли такой флаг?&lt;/div&gt;&lt;div&gt;?&lt;font style=&quot;color: rgb(255, 134, 134);&quot;&gt;) Если флагу &quot;нечего&quot; делать, содержимое файла все равно выводится?&lt;/font&gt;&lt;/div&gt;" style="text;html=1;align=left;verticalAlign=middle;whiteSpace=wrap;rounded=0;" vertex="1" parent="1">
          <mxGeometry x="490" y="120" width="310" height="30" as="geometry" />
        </mxCell>
        <mxCell id="h8kYGKFSrVFOgAnL3OnT-11" value="Вывести измененный&amp;nbsp;&lt;div&gt;файл&amp;nbsp;&lt;span style=&quot;background-color: transparent; color: light-dark(rgb(0, 0, 0), rgb(255, 255, 255));&quot;&gt;в консоль&lt;/span&gt;&lt;/div&gt;&lt;div&gt;&lt;span style=&quot;background-color: transparent; color: light-dark(rgb(0, 0, 0), rgb(255, 255, 255));&quot;&gt;(без сохранения)&lt;/span&gt;&lt;/div&gt;" style="shape=parallelogram;perimeter=parallelogramPerimeter;whiteSpace=wrap;html=1;fixedSize=1;" vertex="1" parent="1">
          <mxGeometry x="320" y="490" width="150" height="60" as="geometry" />
        </mxCell>
      </root>
    </mxGraphModel>
  </diagram>
</mxfile>
